<svg xmlns="http://www.w3.org/2000/svg" xmlns:xlink="http://www.w3.org/1999/xlink" width="560.911" height="500.6" viewBox="0 0 560.911 500.6">
  <defs>
    <clipPath id="clip-path">
      <circle id="Ellipse_8" data-name="Ellipse 8" cx="63.145" cy="63.145" r="63.145" transform="translate(75.425 415.372) rotate(-45)" fill="none"/>
    </clipPath>
    <clipPath id="clip-path-2">
      <circle id="Ellipse_12" data-name="Ellipse 12" cx="63.145" cy="63.145" r="63.145" transform="translate(285.268 141.065)" fill="none"/>
    </clipPath>
    <clipPath id="clip-path-3">
      <circle id="Ellipse_17" data-name="Ellipse 17" cx="63.145" cy="63.145" r="63.145" transform="translate(259.113 415.372) rotate(-45)" fill="none"/>
    </clipPath>
  </defs>
  <g id="Basic_prevention" data-name="Basic prevention" transform="translate(-309.113 -194.072)">
    <g id="Group_120" data-name="Group 120">
      <g id="boy">
        <path id="Path_101" data-name="Path 101" d="M723.916,218.945c20.282,0,47.176,15.989,48.579,23.141s5.933,111.605,4.423,118.149-53,15.856-53,15.856Z" transform="translate(-119 103)" fill="#11477c"/>
        <path id="Path_102" data-name="Path 102" d="M723.917,218.945c-20.283,0-47.177,15.989-48.58,23.141s-5.933,111.605-4.423,118.149,53,15.856,53,15.856Z" transform="translate(-119 103)" fill="#11477c"/>
        <path id="Path_103" data-name="Path 103" d="M723.184,208.033c.245,0,.488-.01.732-.012s.488.012.733.012a70.269,70.269,0,0,0,8.678-.589v26.847l-9.411,7.9-9.409-7.9V207.444A70.238,70.238,0,0,0,723.184,208.033Z" transform="translate(-119 103)" fill="#ffc8af"/>
        <path id="Path_104" data-name="Path 104" d="M659.317,366.9c-.175,6.721-2.238,14.83-6.259,11.169-1.54-1.4.6-9.151.6-9.151-1.24,2.77-2.8,17.59-11.787,8.077-2.842-3.007-2.227-9.148-2.178-10.985,1.668-63.476,13.392-95.321,21.361-109.814l16.467,12.277C671.655,279.485,660.866,307.548,659.317,366.9Z" transform="translate(-119 103)" fill="#ffc8af"/>
        <rect id="Rectangle_10" data-name="Rectangle 10" width="12.677" height="8.181" transform="translate(561.915 453.298)"/>
        <path id="Path_105" data-name="Path 105" d="M695.624,358.478v.393h-2.032V349.9h2.032v8.574Z" transform="translate(-119 103)" fill="#11477c"/>
        <path id="Path_106" data-name="Path 106" d="M808.136,366.014c.049,1.837.664,7.978-2.178,10.985-8.99,9.513-10.547-5.307-11.787-8.077,0,0,2.144,7.749.6,9.151-4.022,3.661-6.084-4.448-6.259-11.169-1.549-59.356-12.338-87.419-18.208-98.427L786.776,256.2C794.744,270.693,806.468,302.538,808.136,366.014Z" transform="translate(-119 103)" fill="#ffc8af"/>
        <path id="Path_107" data-name="Path 107" d="M752.209,358.478H695.624V350.3h56.585Z" transform="translate(-119 103)"/>
        <rect id="Rectangle_11" data-name="Rectangle 11" width="12.677" height="8.181" transform="translate(635.241 453.298)"/>
        <path id="Path_108" data-name="Path 108" d="M754.241,358.478v.393h-2.032V349.9h2.032v8.574Z" transform="translate(-119 103)" fill="#11477c"/>
        <rect id="Rectangle_12" data-name="Rectangle 12" width="25.873" height="105.711" transform="translate(615.707 535.128)" fill="#ffc8af"/>
        <rect id="Rectangle_13" data-name="Rectangle 13" width="25.873" height="105.711" transform="translate(568.253 535.128)" fill="#ffc8af"/>
        <path id="Path_109" data-name="Path 109" d="M693.592,358.872h2.032v-.394h56.585v.394h2.032v-.394h12.677v77.785H731.8V399.885c0-10.178-1.064-14.547-7.887-16.824-6.822,2.277-7.887,6.646-7.887,16.824v36.378H680.915V358.478h12.677Z" transform="translate(-119 103)" fill="#56548c"/>
        <g id="Group_86" data-name="Group 86" transform="translate(-119 103)">
          <path id="Path_110" data-name="Path 110" d="M769.571,537.839a5.421,5.421,0,0,1,5.421,5.42v3.217a5.42,5.42,0,0,1-5.421,5.42H734.707V537.839h34.864Z" fill="#11477c"/>
          <path id="Path_111" data-name="Path 111" d="M678.261,537.839a5.42,5.42,0,0,0-5.42,5.42v3.217a5.42,5.42,0,0,0,5.42,5.42h34.865V537.839H678.261Z" fill="#11477c"/>
        </g>
        <rect id="Rectangle_14" data-name="Rectangle 14" width="15.249" height="9.888" transform="translate(612.541 462.129) rotate(180)" fill="#cda349"/>
        <path id="Path_112" data-name="Path 112" d="M669.656,240.09c-9.565,7.387-20.136,38.848-23.911,53.447l26.36,7.3,8.81-25.673Z" transform="translate(-119 103)" fill="#ff1106"/>
        <path id="Path_113" data-name="Path 113" d="M778.176,240.09c9.564,7.387,20.135,38.848,23.91,53.447l-26.36,7.3-8.81-25.673Z" transform="translate(-119 103)" fill="#ff1106"/>
        <g id="Group_87" data-name="Group 87" transform="translate(-119 103)">
          <path id="Path_114" data-name="Path 114" d="M710.866,226.16c-28.189,3.363-41.21,13.93-41.21,13.93l11.259,35.073v97.4h43V232.5c-8.687,0-9.409-6.341-9.409-6.341Z" fill="#ff1106"/>
        </g>
        <g id="Group_88" data-name="Group 88" transform="translate(-119 103)">
          <path id="Path_115" data-name="Path 115" d="M736.965,226.16c28.19,3.363,41.211,13.93,41.211,13.93l-11.26,35.073v97.4h-43V232.5c8.686,0,9.409-6.341,9.409-6.341Z" fill="#ff1106"/>
        </g>
        <path id="Path_116" data-name="Path 116" d="M678.57,232.5c.147,13.972,3.456,55.25-3.233,93.758v17.115s13.447-39.012,17.223-70.473,1.032-46.738,1.032-46.738Z" transform="translate(-119 103)" fill="#11477c"/>
        <path id="Path_117" data-name="Path 117" d="M769.262,232.5c-.146,13.972-3.456,55.25,3.233,93.758v17.115s-13.447-39.012-17.222-70.473-1.032-46.738-1.032-46.738Z" transform="translate(-119 103)" fill="#11477c"/>
        <g id="Group_98" data-name="Group 98" transform="translate(-119 103)">
          <ellipse id="Ellipse_18" data-name="Ellipse 18" cx="39.076" cy="43.77" rx="39.076" ry="43.77" transform="translate(684.841 130.226)" fill="#ffc8af"/>
          <g id="Group_94" data-name="Group 94">
            <g id="Group_93" data-name="Group 93">
              <path id="Path_118" data-name="Path 118" d="M723.916,209.295c-3.65,0-5.237-.7-5.779-.542s2.424,2.67,5.779,2.67Z" fill="#f4b298"/>
              <g id="Group_89" data-name="Group 89">
                <path id="Path_119" data-name="Path 119" d="M712.574,157.279c1.019.158.033,3.034-1.867,2.825s-9.851-1.465-14.978.523C695.729,160.627,697.7,154.977,712.574,157.279Z" fill="#11477c"/>
                <path id="Path_120" data-name="Path 120" d="M735.258,157.279c-1.019.158-.033,3.034,1.867,2.825s9.851-1.465,14.978.523C752.1,160.627,750.131,154.977,735.258,157.279Z" fill="#11477c"/>
              </g>
              <path id="Path_121" data-name="Path 121" d="M706.833,195.04c.447-.413,11.111,1.857,17.083,1.857s16.635-2.27,17.083-1.857S736.211,206.8,723.916,206.8,706.385,195.452,706.833,195.04Z" fill="#fa8b65"/>
              <path id="Path_122" data-name="Path 122" d="M706.833,195.04c.447-.413,11.111,1.857,17.083,1.857s16.635-2.27,17.083-1.857c.123.112-.2,1.058-.954,2.352a79.75,79.75,0,0,1-16.129,2.189h0a79.741,79.741,0,0,1-16.129-2.189C707.03,196.1,706.71,195.152,706.833,195.04Z" fill="#f9f8f7"/>
              <path id="Path_123" data-name="Path 123" d="M723.916,209.295c3.65,0,5.237-.7,5.778-.542s-2.423,2.67-5.778,2.67Z" fill="#f4b298"/>
              <g id="Group_90" data-name="Group 90">
                <path id="Path_124" data-name="Path 124" d="M723.916,188.228c2.665,0,4.321.207,4.321.826,0,.258-.749.658-1.624,1.039a6.774,6.774,0,0,1-5.395,0c-.874-.381-1.623-.781-1.623-1.039C719.595,188.435,721.25,188.228,723.916,188.228Z" fill="#f4b298"/>
                <path id="Path_125" data-name="Path 125" d="M720.576,186.112s1.135-8,1.6-7.74S722.448,187.194,720.576,186.112Z" fill="#f7ecdf"/>
              </g>
              <g id="Group_92" data-name="Group 92">
                <g id="Group_91" data-name="Group 91">
                  <path id="Path_126" data-name="Path 126" d="M703.946,173.989c0,3.7,1.7,6.705,3.793,6.705s3.792-3,3.792-6.705-1.7-6.705-3.792-6.705S703.946,170.286,703.946,173.989Z" fill="#11477c"/>
                  <path id="Path_127" data-name="Path 127" d="M736.3,173.989c0,3.7,1.7,6.705,3.793,6.705s3.793-3,3.793-6.705-1.7-6.705-3.793-6.705S736.3,170.286,736.3,173.989Z" fill="#11477c"/>
                </g>
                <path id="Path_128" data-name="Path 128" d="M708.159,171.174c0,.812.427,1.47.954,1.47s.953-.658.953-1.47-.427-1.471-.953-1.471S708.159,170.362,708.159,171.174Z" fill="#a3b8c1"/>
                <path id="Path_129" data-name="Path 129" d="M740.418,171.174c0,.812.426,1.47.953,1.47s.954-.658.954-1.47-.427-1.471-.954-1.471S740.418,170.362,740.418,171.174Z" fill="#a3b8c1"/>
              </g>
            </g>
          </g>
          <g id="Group_97" data-name="Group 97">
            <g id="Group_95" data-name="Group 95">
              <path id="Path_130" data-name="Path 130" d="M685.538,168.509s-4.025-2.263-5.47,1.194,1.2,20.589,9.477,18.525Z" fill="#ffc8af"/>
              <path id="Path_131" data-name="Path 131" d="M685.512,184.41c.954.837,2.709-1.692,1.935-2.124S684.815,181,684.97,180a36.411,36.411,0,0,0,.852-3.638c.077-1.239-.4-4.025-2.1-4.025S681.549,180.93,685.512,184.41Z" fill="#f4b298"/>
              <path id="Path_132" data-name="Path 132" d="M685.538,168.509l2.168,10.667,1.839-21.083-5.819,1.858Z" fill="#11477c"/>
            </g>
            <g id="Group_96" data-name="Group 96">
              <path id="Path_133" data-name="Path 133" d="M762.295,168.509s4.025-2.263,5.47,1.194-1.2,20.589-9.476,18.525Z" fill="#ffc8af"/>
              <path id="Path_134" data-name="Path 134" d="M762.321,184.41c-.954.837-2.709-1.692-1.935-2.124S763.018,181,762.863,180a36.428,36.428,0,0,1-.852-3.638c-.077-1.239.4-4.025,2.1-4.025S766.285,180.93,762.321,184.41Z" fill="#f4b298"/>
              <path id="Path_135" data-name="Path 135" d="M762.3,168.509l-2.168,10.667-1.839-21.083,5.819,1.858Z" fill="#11477c"/>
            </g>
          </g>
          <path id="Path_136" data-name="Path 136" d="M681.276,162.809a10.46,10.46,0,0,1-2.282-7.114,10.809,10.809,0,0,1,4.7-7.92,5.106,5.106,0,0,1,3.624-7.517,9.579,9.579,0,0,1,1.074-8.189,9.407,9.407,0,0,1,10.471-3.222,11.231,11.231,0,0,1,6.577-9.53,11.759,11.759,0,0,1,10.471.805,4.967,4.967,0,0,1,3.624-2.819,4.7,4.7,0,0,1,4.384,1.794A4.7,4.7,0,0,1,728.3,117.3a4.967,4.967,0,0,1,3.624,2.819,11.759,11.759,0,0,1,10.471-.805,11.231,11.231,0,0,1,6.577,9.53,9.407,9.407,0,0,1,10.471,3.222,9.579,9.579,0,0,1,1.074,8.189,5.106,5.106,0,0,1,3.624,7.517,10.809,10.809,0,0,1,4.7,7.92,10.46,10.46,0,0,1-2.282,7.114,4.017,4.017,0,0,1-2.416,7.383,6.682,6.682,0,0,1-3.289,1.678,5.441,5.441,0,0,1-2.751-2.014c-1.786-2.576-.339-5.694-.269-5.839-.576-.577-4.1-4.215-3.356-8.792a8.289,8.289,0,0,1,.94-2.685c-.709-.252-4.983-1.845-6.376-6.041a8.631,8.631,0,0,1-.4-3.355,3.851,3.851,0,0,1-4.027,0,3.62,3.62,0,0,1-1.41-1.947,12.026,12.026,0,0,1-13.155-1.275s-.94,2.94-6.046,3.008v.012c-.03,0-.052-.006-.082-.006s-.052.006-.083.006v-.012c-5.107-.068-6.046-3.008-6.046-3.008a12.026,12.026,0,0,1-13.155,1.275,3.62,3.62,0,0,1-1.41,1.947,3.851,3.851,0,0,1-4.027,0,8.61,8.61,0,0,1-.4,3.355c-1.394,4.2-5.668,5.789-6.377,6.041a8.266,8.266,0,0,1,.94,2.685c.742,4.577-2.779,8.215-3.356,8.792.07.145,1.517,3.263-.268,5.839a5.446,5.446,0,0,1-2.752,2.014,6.682,6.682,0,0,1-3.289-1.678,4.017,4.017,0,0,1-2.416-7.383Z" fill="#11477c"/>
        </g>
        <g id="Group_103" data-name="Group 103" transform="translate(-119 103)">
          <g id="Group_100" data-name="Group 100">
            <path id="Path_137" data-name="Path 137" d="M756.152,192.869l-23.718-12.2a19.411,19.411,0,0,0-17.317.022l-23.508,12.178c0,14.133,14.449,25.59,32.27,25.59S756.153,207,756.152,192.869Z" fill="#a8a8a8"/>
          </g>
          <g id="Group_101" data-name="Group 101">
            <path id="Path_138" data-name="Path 138" d="M754.061,196.287l7.05-24.928a.595.595,0,1,1,1.145.324L756.484,192.1l4.21-4.321a.6.6,0,0,1,.853.832Z" fill="#a8a8a8"/>
          </g>
          <g id="Group_102" data-name="Group 102">
            <path id="Path_139" data-name="Path 139" d="M694.407,196.859l-8.118-8.246a.6.6,0,0,1,.849-.835l4.736,4.812-6.266-20.759a.6.6,0,0,1,1.14-.344Z" fill="#a8a8a8"/>
          </g>
        </g>
      </g>
      <g id="Group_104" data-name="Group 104" transform="translate(-60 311)">
        <g id="Group_111" data-name="Group 111" transform="translate(-49 -193)">
          <g id="Group_110" data-name="Group 110">
            <g id="Group_109" data-name="Group 109">
              <circle id="Ellipse_19" data-name="Ellipse 19" cx="11.474" cy="11.474" r="11.474" transform="translate(782.905 185.385)" fill="#758d9e"/>
              <path id="Path_142" data-name="Path 142" d="M796.014,179.652a1.387,1.387,0,1,0-2.687.483,9.573,9.573,0,0,1,.709,3.358v4.468h1.181v-4.39a10.079,10.079,0,0,1,.713-3.447A1.366,1.366,0,0,0,796.014,179.652Z" fill="#758d9e"/>
              <path id="Path_143" data-name="Path 143" d="M811.446,200.532a1.387,1.387,0,1,0,0-2.73,9.538,9.538,0,0,1-3.43.1l-4.4-.8-.211,1.162,4.319.784A10.043,10.043,0,0,1,811,200.366,1.382,1.382,0,0,0,811.446,200.532Z" fill="#758d9e"/>
              <path id="Path_144" data-name="Path 144" d="M794.41,215.03a1.387,1.387,0,1,0,2.639-.7,9.563,9.563,0,0,1-.977-3.29l-.359-4.453-1.177.1.353,4.375a10.058,10.058,0,0,1-.434,3.493A1.378,1.378,0,0,0,794.41,215.03Z" fill="#758d9e"/>
              <path id="Path_145" data-name="Path 145" d="M800.851,182.3a.962.962,0,1,0-1.848-.409,6.635,6.635,0,0,1-.446,2.337l-1.2,2.859.756.316,1.174-2.808a6.991,6.991,0,0,1,1.379-2.015A.941.941,0,0,0,800.851,182.3Z" fill="#758d9e"/>
              <path id="Path_146" data-name="Path 146" d="M807.369,205.03a.962.962,0,1,0,.774-1.727,6.653,6.653,0,0,1-2.2-.908l-2.559-1.747-.462.676,2.513,1.717a6.988,6.988,0,0,1,1.7,1.756A.942.942,0,0,0,807.369,205.03Z" fill="#758d9e"/>
              <path id="Path_147" data-name="Path 147" d="M799.9,210.185a.616.616,0,1,0,.961-.74,4.245,4.245,0,0,1-.966-1.179l-.913-1.762-.466.242.9,1.73a4.463,4.463,0,0,1,.424,1.505A.617.617,0,0,0,799.9,210.185Z" fill="#758d9e"/>
              <path id="Path_148" data-name="Path 148" d="M803.756,186.228a.765.765,0,1,0-1.333-.7,5.3,5.3,0,0,1-.83,1.7l-1.514,1.946.514.4,1.488-1.911a5.547,5.547,0,0,1,1.479-1.26A.763.763,0,0,0,803.756,186.228Z" fill="#758d9e"/>
              <path id="Path_149" data-name="Path 149" d="M808.487,194a.765.765,0,0,0-.309-1.493.755.755,0,0,0-.379.153,5.286,5.286,0,0,1-1.658.915l-2.358.72.191.623,2.316-.707a5.546,5.546,0,0,1,1.934-.179A.745.745,0,0,0,808.487,194Z" fill="#758d9e"/>
              <path id="Path_150" data-name="Path 150" d="M803.808,208.882a.766.766,0,1,0,.92-1.193,5.28,5.28,0,0,1-1.533-1.111l-1.655-1.827-.484.438,1.626,1.795a5.545,5.545,0,0,1,.985,1.674A.783.783,0,0,0,803.808,208.882Z" fill="#758d9e"/>
              <path id="Path_151" data-name="Path 151" d="M808.192,188.915a1.055,1.055,0,1,0-1.358-1.571,7.3,7.3,0,0,1-1.923,1.766l-2.924,1.732.458.773,2.873-1.7a7.671,7.671,0,0,1,2.532-.869A1.056,1.056,0,0,0,808.192,188.915Z" fill="#758d9e"/>
              <path id="Path_152" data-name="Path 152" d="M777.466,193.1a1.387,1.387,0,1,0,0,2.73,9.562,9.562,0,0,1,3.43-.1l4.4.8.211-1.162-4.319-.784a10.028,10.028,0,0,1-3.264-1.317A1.4,1.4,0,0,0,777.466,193.1Z" fill="#758d9e"/>
              <path id="Path_153" data-name="Path 153" d="M787.587,211.205a.962.962,0,1,0,1.848.409,6.639,6.639,0,0,1,.445-2.337l1.2-2.858-.756-.317-1.175,2.809a6.984,6.984,0,0,1-1.378,2.014A.968.968,0,0,0,787.587,211.205Z" fill="#758d9e"/>
              <path id="Path_154" data-name="Path 154" d="M781.667,187.64a.962.962,0,1,0-.774,1.727,6.644,6.644,0,0,1,2.2.907l2.558,1.748.462-.677-2.513-1.716a6.976,6.976,0,0,1-1.695-1.757A.956.956,0,0,0,781.667,187.64Z" fill="#758d9e"/>
              <path id="Path_155" data-name="Path 155" d="M790.168,181.452a.823.823,0,1,0-1.424.773,5.669,5.669,0,0,1,1.024,1.761l.832,2.518.666-.22-.817-2.474a5.977,5.977,0,0,1-.24-2.076A.816.816,0,0,0,790.168,181.452Z" fill="#758d9e"/>
              <path id="Path_156" data-name="Path 156" d="M783.505,207.525a.765.765,0,1,0,1.334.7,5.262,5.262,0,0,1,.829-1.7l1.514-1.946-.514-.4-1.488,1.911a5.547,5.547,0,0,1-1.479,1.26A.763.763,0,0,0,783.505,207.525Z" fill="#758d9e"/>
              <path id="Path_157" data-name="Path 157" d="M779.86,199.057a.765.765,0,1,0,.467,1.432,5.3,5.3,0,0,1,1.781-.641l2.443-.337-.089-.646-2.4.332a5.557,5.557,0,0,1-1.938-.13A.777.777,0,0,0,779.86,199.057Z" fill="#758d9e"/>
              <path id="Path_158" data-name="Path 158" d="M785.83,184.041a.766.766,0,1,0-1.191.923,5.253,5.253,0,0,1,1.2,1.461l1.141,2.186.578-.3-1.121-2.147a5.55,5.55,0,0,1-.531-1.869A.786.786,0,0,0,785.83,184.041Z" fill="#758d9e"/>
              <path id="Path_159" data-name="Path 159" d="M779.916,204.033a1.055,1.055,0,1,0,1.358,1.571,7.279,7.279,0,0,1,1.922-1.766l2.924-1.732-.458-.773-2.873,1.7a7.634,7.634,0,0,1-2.532.869A1.05,1.05,0,0,0,779.916,204.033Z" fill="#758d9e"/>
            </g>
            <path id="Path_160" data-name="Path 160" d="M801.241,191.277a.919.919,0,1,1-.918-.919A.918.918,0,0,1,801.241,191.277Z" fill="#dce8ef"/>
            <path id="Path_161" data-name="Path 161" d="M786.836,195.61a.918.918,0,1,1-.918-.918A.918.918,0,0,1,786.836,195.61Z" fill="#dce8ef"/>
            <path id="Path_162" data-name="Path 162" d="M795.917,196.085a.918.918,0,1,1-.919-.918A.919.919,0,0,1,795.917,196.085Z" fill="#dce8ef"/>
            <path id="Path_163" data-name="Path 163" d="M796.948,203.143a.918.918,0,1,1-.918-.918A.918.918,0,0,1,796.948,203.143Z" fill="#dce8ef"/>
            <path id="Path_164" data-name="Path 164" d="M792.532,192.329a.918.918,0,1,1-.918-.918A.918.918,0,0,1,792.532,192.329Z" fill="#dce8ef"/>
            <path id="Path_165" data-name="Path 165" d="M791.459,199.955a.918.918,0,1,1-.918-.919A.918.918,0,0,1,791.459,199.955Z" fill="#dce8ef"/>
            <circle id="Ellipse_20" data-name="Ellipse 20" cx="0.516" cy="0.516" r="0.516" transform="translate(795.721 191.731)" fill="#dce8ef"/>
            <path id="Path_166" data-name="Path 166" d="M788.58,191.091a.516.516,0,1,1-.516-.516A.516.516,0,0,1,788.58,191.091Z" fill="#dce8ef"/>
            <circle id="Ellipse_21" data-name="Ellipse 21" cx="0.516" cy="0.516" r="0.516" transform="translate(799.931 202.091)" fill="#dce8ef"/>
            <path id="Path_167" data-name="Path 167" d="M787.342,200.46a.516.516,0,1,1-.516-.516A.516.516,0,0,1,787.342,200.46Z" fill="#dce8ef"/>
            <path id="Path_168" data-name="Path 168" d="M790.107,196.085a.516.516,0,1,1-.516-.516A.516.516,0,0,1,790.107,196.085Z" fill="#dce8ef"/>
            <path id="Path_169" data-name="Path 169" d="M803.356,194.145a.516.516,0,1,1-.516-.516A.516.516,0,0,1,803.356,194.145Z" fill="#dce8ef"/>
            <path id="Path_170" data-name="Path 170" d="M792.852,188.2a.516.516,0,1,1-.516-.516A.516.516,0,0,1,792.852,188.2Z" fill="#dce8ef"/>
            <path id="Path_171" data-name="Path 171" d="M801.922,197.757a.918.918,0,1,1-.918-.919A.918.918,0,0,1,801.922,197.757Z" fill="#dce8ef"/>
          </g>
        </g>
      </g>
      <g id="Group_105" data-name="Group 105" transform="translate(-145 111)">
        <g id="Group_115" data-name="Group 115">
          <g id="Group_114" data-name="Group 114">
            <g id="Group_113" data-name="Group 113">
              <circle id="Ellipse_22" data-name="Ellipse 22" cx="8.578" cy="8.578" r="8.578" transform="translate(647.447 229.506) rotate(-77.708)" fill="#758d9e"/>
              <path id="Path_172" data-name="Path 172" d="M658.877,210.088a1.037,1.037,0,1,0-2.009.361,7.161,7.161,0,0,1,.53,2.51v3.34h.883v-3.281a7.532,7.532,0,0,1,.533-2.577A1.01,1.01,0,0,0,658.877,210.088Z" fill="#758d9e"/>
              <path id="Path_173" data-name="Path 173" d="M670.413,225.7a1.037,1.037,0,1,0,0-2.041,7.135,7.135,0,0,1-2.564.073l-3.286-.6-.158.869,3.229.586a7.517,7.517,0,0,1,2.44.984A1,1,0,0,0,670.413,225.7Z" fill="#758d9e"/>
              <path id="Path_174" data-name="Path 174" d="M657.678,236.535a1.037,1.037,0,1,0,1.972-.522,7.15,7.15,0,0,1-.729-2.459l-.269-3.33-.88.071.263,3.271a7.5,7.5,0,0,1-.324,2.612A1.033,1.033,0,0,0,657.678,236.535Z" fill="#758d9e"/>
              <path id="Path_175" data-name="Path 175" d="M662.492,212.068a.719.719,0,1,0-1.381-.306,4.975,4.975,0,0,1-.333,1.747l-.894,2.137.565.236.879-2.1a5.2,5.2,0,0,1,1.03-1.506A.719.719,0,0,0,662.492,212.068Z" fill="#758d9e"/>
              <path id="Path_176" data-name="Path 176" d="M667.365,229.059a.719.719,0,1,0,.579-1.291,4.958,4.958,0,0,1-1.644-.678l-1.913-1.307-.345.506,1.879,1.283a5.243,5.243,0,0,1,1.267,1.314A.7.7,0,0,0,667.365,229.059Z" fill="#758d9e"/>
              <path id="Path_177" data-name="Path 177" d="M661.781,232.913a.46.46,0,1,0,.718-.553,3.157,3.157,0,0,1-.722-.882l-.683-1.317-.348.181.67,1.294a3.315,3.315,0,0,1,.317,1.125A.456.456,0,0,0,661.781,232.913Z" fill="#758d9e"/>
              <path id="Path_178" data-name="Path 178" d="M664.665,215a.572.572,0,1,0-1-.524,3.955,3.955,0,0,1-.62,1.273l-1.132,1.454.384.3,1.112-1.429a4.157,4.157,0,0,1,1.106-.942A.556.556,0,0,0,664.665,215Z" fill="#758d9e"/>
              <path id="Path_179" data-name="Path 179" d="M668.2,220.815a.572.572,0,1,0-.514-1,3.942,3.942,0,0,1-1.239.684l-1.763.539.142.466,1.732-.529a4.161,4.161,0,0,1,1.446-.134A.553.553,0,0,0,668.2,220.815Z" fill="#758d9e"/>
              <path id="Path_180" data-name="Path 180" d="M664.7,231.939a.572.572,0,1,0,.687-.892,3.95,3.95,0,0,1-1.146-.83l-1.237-1.366-.362.327,1.216,1.342a4.141,4.141,0,0,1,.736,1.252A.575.575,0,0,0,664.7,231.939Z" fill="#758d9e"/>
              <path id="Path_181" data-name="Path 181" d="M667.98,217.012a.789.789,0,1,0-1.015-1.174,5.424,5.424,0,0,1-1.437,1.32l-2.186,1.295.342.578,2.148-1.272a5.727,5.727,0,0,1,1.893-.651A.769.769,0,0,0,667.98,217.012Z" fill="#758d9e"/>
              <path id="Path_182" data-name="Path 182" d="M645.011,220.139a1.037,1.037,0,1,0,0,2.04,7.158,7.158,0,0,1,2.564-.073l3.287.6.157-.869-3.228-.585a7.546,7.546,0,0,1-2.441-.985A1.026,1.026,0,0,0,645.011,220.139Z" fill="#758d9e"/>
              <path id="Path_183" data-name="Path 183" d="M652.577,233.675a.719.719,0,1,0,1.382.306,4.949,4.949,0,0,1,.332-1.747l.894-2.137-.565-.236-.878,2.1a5.207,5.207,0,0,1-1.031,1.506A.718.718,0,0,0,652.577,233.675Z" fill="#758d9e"/>
              <path id="Path_184" data-name="Path 184" d="M648.151,216.059a.719.719,0,1,0-.578,1.291,4.938,4.938,0,0,1,1.644.679l1.913,1.306.345-.506-1.879-1.283a5.239,5.239,0,0,1-1.267-1.313A.686.686,0,0,0,648.151,216.059Z" fill="#758d9e"/>
              <path id="Path_185" data-name="Path 185" d="M654.507,211.434a.616.616,0,0,0-1.2.275.609.609,0,0,0,.13.3,4.261,4.261,0,0,1,.766,1.316l.621,1.883.5-.164-.61-1.85a4.484,4.484,0,0,1-.18-1.552A.591.591,0,0,0,654.507,211.434Z" fill="#758d9e"/>
              <path id="Path_186" data-name="Path 186" d="M649.525,230.925a.572.572,0,0,0,.832.779.582.582,0,0,0,.166-.256,3.934,3.934,0,0,1,.62-1.273l1.132-1.454-.385-.3-1.112,1.428a4.157,4.157,0,0,1-1.106.942A.576.576,0,0,0,649.525,230.925Z" fill="#758d9e"/>
              <path id="Path_187" data-name="Path 187" d="M646.8,224.594a.572.572,0,1,0,.35,1.071,3.922,3.922,0,0,1,1.332-.479l1.825-.252-.066-.483-1.794.247a4.165,4.165,0,0,1-1.449-.1A.569.569,0,0,0,646.8,224.594Z" fill="#758d9e"/>
              <path id="Path_188" data-name="Path 188" d="M651.263,213.369a.572.572,0,0,0-1.054.432.58.58,0,0,0,.164.258,3.919,3.919,0,0,1,.9,1.092l.854,1.634.432-.226-.838-1.605a4.152,4.152,0,0,1-.4-1.4A.55.55,0,0,0,651.263,213.369Z" fill="#758d9e"/>
              <path id="Path_189" data-name="Path 189" d="M646.842,228.314a.789.789,0,1,0,1.015,1.174,5.455,5.455,0,0,1,1.438-1.319l2.186-1.3-.343-.578-2.147,1.272a5.731,5.731,0,0,1-1.894.65A.787.787,0,0,0,646.842,228.314Z" fill="#758d9e"/>
            </g>
            <path id="Path_190" data-name="Path 190" d="M662.784,218.778a.686.686,0,1,1-.686-.687A.686.686,0,0,1,662.784,218.778Z" fill="#dce8ef"/>
            <path id="Path_191" data-name="Path 191" d="M652.016,222.018a.686.686,0,1,1-.687-.687A.687.687,0,0,1,652.016,222.018Z" fill="#dce8ef"/>
            <path id="Path_192" data-name="Path 192" d="M658.8,222.372a.686.686,0,1,1-.687-.686A.686.686,0,0,1,658.8,222.372Z" fill="#dce8ef"/>
            <path id="Path_193" data-name="Path 193" d="M659.575,227.649a.686.686,0,1,1-.686-.687A.686.686,0,0,1,659.575,227.649Z" fill="#dce8ef"/>
            <path id="Path_194" data-name="Path 194" d="M656.274,219.565a.686.686,0,1,1-.687-.687A.687.687,0,0,1,656.274,219.565Z" fill="#dce8ef"/>
            <circle id="Ellipse_23" data-name="Ellipse 23" cx="0.687" cy="0.687" r="0.687" transform="translate(654.099 224.579)" fill="#dce8ef"/>
            <circle id="Ellipse_24" data-name="Ellipse 24" cx="0.386" cy="0.386" r="0.386" transform="translate(658.657 219.117)" fill="#dce8ef"/>
            <circle id="Ellipse_25" data-name="Ellipse 25" cx="0.386" cy="0.386" r="0.386" transform="translate(652.548 218.253)" fill="#dce8ef"/>
            <path id="Path_195" data-name="Path 195" d="M662.576,227.248a.385.385,0,1,1-.386-.386A.385.385,0,0,1,662.576,227.248Z" fill="#dce8ef"/>
            <path id="Path_196" data-name="Path 196" d="M652.394,225.643a.386.386,0,1,1-.386-.386A.386.386,0,0,1,652.394,225.643Z" fill="#dce8ef"/>
            <circle id="Ellipse_26" data-name="Ellipse 26" cx="0.386" cy="0.386" r="0.386" transform="translate(653.69 221.987)" fill="#dce8ef"/>
            <path id="Path_197" data-name="Path 197" d="M664.366,220.922a.386.386,0,1,1-.386-.385A.386.386,0,0,1,664.366,220.922Z" fill="#dce8ef"/>
            <path id="Path_198" data-name="Path 198" d="M656.513,216.479a.385.385,0,1,1-.386-.386A.386.386,0,0,1,656.513,216.479Z" fill="#dce8ef"/>
            <path id="Path_199" data-name="Path 199" d="M663.293,223.622a.687.687,0,1,1-.686-.686A.687.687,0,0,1,663.293,223.622Z" fill="#dce8ef"/>
          </g>
        </g>
      </g>
      <g id="Group_106" data-name="Group 106" transform="translate(-148 179)">
        <g id="Group_119" data-name="Group 119">
          <g id="Group_118" data-name="Group 118">
            <g id="Group_117" data-name="Group 117">
              <circle id="Ellipse_27" data-name="Ellipse 27" cx="6.099" cy="6.099" r="6.099" transform="translate(678.479 110.929)" fill="#758d9e"/>
              <path id="Path_200" data-name="Path 200" d="M685.447,107.881a.737.737,0,1,0-1.428.257,5.1,5.1,0,0,1,.377,1.785V112.3h.628v-2.333a5.339,5.339,0,0,1,.379-1.833A.739.739,0,0,0,685.447,107.881Z" fill="#758d9e"/>
              <path id="Path_201" data-name="Path 201" d="M693.65,118.98a.737.737,0,1,0,0-1.451,5.083,5.083,0,0,1-1.823.052l-2.337-.424-.112.618,2.3.417a5.335,5.335,0,0,1,1.735.7A.736.736,0,0,0,693.65,118.98Z" fill="#758d9e"/>
              <path id="Path_202" data-name="Path 202" d="M684.595,126.686a.737.737,0,1,0,1.4-.371,5.1,5.1,0,0,1-.519-1.748l-.191-2.368-.626.051.188,2.326a5.319,5.319,0,0,1-.231,1.856A.717.717,0,0,0,684.595,126.686Z" fill="#758d9e"/>
              <path id="Path_203" data-name="Path 203" d="M688.018,109.289a.511.511,0,1,0-.982-.217,3.527,3.527,0,0,1-.237,1.242l-.635,1.519.4.168.625-1.492a3.719,3.719,0,0,1,.732-1.071A.49.49,0,0,0,688.018,109.289Z" fill="#758d9e"/>
              <path id="Path_204" data-name="Path 204" d="M691.483,121.371a.511.511,0,1,0,.411-.918,3.513,3.513,0,0,1-1.169-.483l-1.36-.929-.245.36,1.336.913a3.715,3.715,0,0,1,.9.933A.517.517,0,0,0,691.483,121.371Z" fill="#758d9e"/>
              <path id="Path_205" data-name="Path 205" d="M687.512,124.111a.327.327,0,1,0,.51-.393,2.275,2.275,0,0,1-.513-.627l-.485-.936-.248.128.477.92a2.375,2.375,0,0,1,.225.8A.337.337,0,0,0,687.512,124.111Z" fill="#758d9e"/>
              <path id="Path_206" data-name="Path 206" d="M689.563,111.377a.407.407,0,1,0-.709-.372,2.817,2.817,0,0,1-.441.9l-.805,1.035.273.213.791-1.017a2.957,2.957,0,0,1,.786-.669A.405.405,0,0,0,689.563,111.377Z" fill="#758d9e"/>
              <path id="Path_207" data-name="Path 207" d="M692.077,115.509a.407.407,0,0,0-.164-.794.415.415,0,0,0-.2.082,2.786,2.786,0,0,1-.881.486l-1.253.383.1.331,1.231-.376a2.964,2.964,0,0,1,1.028-.1A.4.4,0,0,0,692.077,115.509Z" fill="#758d9e"/>
              <path id="Path_208" data-name="Path 208" d="M689.59,123.418a.407.407,0,1,0,.489-.634,2.808,2.808,0,0,1-.815-.59l-.88-.971-.257.232.865.955a2.936,2.936,0,0,1,.523.889A.4.4,0,0,0,689.59,123.418Z" fill="#758d9e"/>
              <path id="Path_209" data-name="Path 209" d="M691.92,112.805a.561.561,0,1,0-.722-.835,3.856,3.856,0,0,1-1.022.939l-1.554.92.243.411,1.528-.9a4.052,4.052,0,0,1,1.346-.463A.547.547,0,0,0,691.92,112.805Z" fill="#758d9e"/>
              <path id="Path_210" data-name="Path 210" d="M675.588,115.028a.737.737,0,1,0,0,1.451,5.083,5.083,0,0,1,1.823-.052l2.337.424.112-.618-2.3-.417a5.334,5.334,0,0,1-1.735-.7A.737.737,0,0,0,675.588,115.028Z" fill="#758d9e"/>
              <path id="Path_211" data-name="Path 211" d="M680.968,124.653a.511.511,0,0,0,.9.478.5.5,0,0,0,.083-.26,3.526,3.526,0,0,1,.237-1.243l.635-1.519-.4-.168-.624,1.493a3.706,3.706,0,0,1-.733,1.07A.512.512,0,0,0,680.968,124.653Z" fill="#758d9e"/>
              <path id="Path_212" data-name="Path 212" d="M677.821,112.127a.511.511,0,1,0-.411.918,3.513,3.513,0,0,1,1.169.483l1.36.929.245-.36-1.336-.913a3.718,3.718,0,0,1-.9-.933A.5.5,0,0,0,677.821,112.127Z" fill="#758d9e"/>
              <path id="Path_213" data-name="Path 213" d="M682.34,108.838a.438.438,0,0,0-.85.2.433.433,0,0,0,.093.215,3.005,3.005,0,0,1,.544.936l.442,1.339.354-.117-.434-1.315a3.185,3.185,0,0,1-.127-1.1A.463.463,0,0,0,682.34,108.838Z" fill="#758d9e"/>
              <path id="Path_214" data-name="Path 214" d="M678.8,122.7a.407.407,0,0,0,.591.555.415.415,0,0,0,.118-.183,2.81,2.81,0,0,1,.441-.9l.8-1.034-.274-.213-.791,1.016a2.926,2.926,0,0,1-.786.67A.4.4,0,0,0,678.8,122.7Z" fill="#758d9e"/>
              <path id="Path_215" data-name="Path 215" d="M676.86,118.2a.407.407,0,1,0,.249.761,2.809,2.809,0,0,1,.947-.34l1.3-.18-.047-.343-1.276.176A2.935,2.935,0,0,1,677,118.2.414.414,0,0,0,676.86,118.2Z" fill="#758d9e"/>
              <path id="Path_216" data-name="Path 216" d="M680.034,110.214a.407.407,0,1,0-.633.491,2.8,2.8,0,0,1,.64.777l.606,1.161.308-.16-.6-1.141a2.956,2.956,0,0,1-.283-.993A.421.421,0,0,0,680.034,110.214Z" fill="#758d9e"/>
              <path id="Path_217" data-name="Path 217" d="M676.89,120.841a.561.561,0,0,0,.479,1.009.554.554,0,0,0,.243-.174,3.867,3.867,0,0,1,1.022-.938l1.554-.921-.243-.411-1.527.9a4.068,4.068,0,0,1-1.346.463A.544.544,0,0,0,676.89,120.841Z" fill="#758d9e"/>
            </g>
            <path id="Path_218" data-name="Path 218" d="M688.225,114.06a.488.488,0,1,1-.488-.488A.488.488,0,0,1,688.225,114.06Z" fill="#dce8ef"/>
            <path id="Path_219" data-name="Path 219" d="M680.569,116.364a.488.488,0,1,1-.488-.488A.488.488,0,0,1,680.569,116.364Z" fill="#dce8ef"/>
            <path id="Path_220" data-name="Path 220" d="M685.4,116.616a.488.488,0,1,1-.488-.488A.487.487,0,0,1,685.4,116.616Z" fill="#dce8ef"/>
            <path id="Path_221" data-name="Path 221" d="M685.944,120.368a.488.488,0,1,1-.488-.488A.489.489,0,0,1,685.944,120.368Z" fill="#dce8ef"/>
            <path id="Path_222" data-name="Path 222" d="M683.6,114.62a.488.488,0,1,1-.488-.488A.488.488,0,0,1,683.6,114.62Z" fill="#dce8ef"/>
            <path id="Path_223" data-name="Path 223" d="M683.026,118.673a.488.488,0,1,1-.488-.488A.488.488,0,0,1,683.026,118.673Z" fill="#dce8ef"/>
            <path id="Path_224" data-name="Path 224" d="M685.84,114.576a.275.275,0,1,1-.275-.274A.275.275,0,0,1,685.84,114.576Z" fill="#dce8ef"/>
            <path id="Path_225" data-name="Path 225" d="M681.5,113.962a.274.274,0,1,1-.275-.274A.275.275,0,0,1,681.5,113.962Z" fill="#dce8ef"/>
            <path id="Path_226" data-name="Path 226" d="M688.077,120.083a.274.274,0,1,1-.274-.275A.274.274,0,0,1,688.077,120.083Z" fill="#dce8ef"/>
            <path id="Path_227" data-name="Path 227" d="M680.837,118.942a.274.274,0,1,1-.274-.274A.274.274,0,0,1,680.837,118.942Z" fill="#dce8ef"/>
            <path id="Path_228" data-name="Path 228" d="M682.307,116.616a.274.274,0,1,1-.274-.274A.274.274,0,0,1,682.307,116.616Z" fill="#dce8ef"/>
            <path id="Path_229" data-name="Path 229" d="M689.35,115.585a.274.274,0,1,1-.274-.274A.274.274,0,0,1,689.35,115.585Z" fill="#dce8ef"/>
            <path id="Path_230" data-name="Path 230" d="M683.766,112.426a.274.274,0,1,1-.274-.274A.274.274,0,0,1,683.766,112.426Z" fill="#dce8ef"/>
            <path id="Path_231" data-name="Path 231" d="M688.587,117.5a.488.488,0,1,1-.488-.488A.488.488,0,0,1,688.587,117.5Z" fill="#dce8ef"/>
          </g>
        </g>
      </g>
    </g>
    <g id="Group_121" data-name="Group 121" transform="translate(0 36)">
      <circle id="Ellipse_13" data-name="Ellipse 13" cx="63.145" cy="63.145" r="63.145" transform="translate(335.58 184.065)" fill="#009dff"/>
      <path id="Path_41" data-name="Path 41" d="M191.37,196.019l-.361,16.841-.692,32.17a4.805,4.805,0,0,1-4.8,4.7H144.727a4.806,4.806,0,0,1-4.805-4.7l-.691-32.17-.361-16.841a13.966,13.966,0,0,1,13.966-14.267H177.4A13.967,13.967,0,0,1,191.37,196.019Z" transform="translate(234 43)" fill="#fff"/>
      <path id="Path_42" data-name="Path 42" d="M152.938,181.752v-5.845a4.631,4.631,0,0,1,4.631-4.632h15.1a4.632,4.632,0,0,1,4.632,4.632v5.845Z" transform="translate(234 43)"/>
      <path id="Path_43" data-name="Path 43" d="M138.076,162.874a78.854,78.854,0,0,1,25.014-4.182c13.887,0,13.725,3.167,12.831,4.223s-5.36.081-5.36,2.761v5.6H158.948v-6.741s-.082-2.964-5.239-2.152S138.076,164.661,138.076,162.874Z" transform="translate(234 43)"/>
      <path id="Path_44" data-name="Path 44" d="M143.228,204.253l.873,40.683a.622.622,0,0,0,.626.611h40.786a.62.62,0,0,0,.625-.607l.874-40.687Z" transform="translate(234 43)" fill="#5f707a"/>
      <rect id="Rectangle_7" data-name="Rectangle 7" width="4.395" height="21.477" transform="translate(396.922 225.776)"/>
      <rect id="Rectangle_8" data-name="Rectangle 8" width="4.395" height="34.811" transform="translate(396.922 249.92)" fill="#fff"/>
    </g>
    <g id="Group_122" data-name="Group 122" transform="translate(2 33)">
      <circle id="Ellipse_3" data-name="Ellipse 3" cx="63.145" cy="63.145" r="63.145" transform="translate(689.425 250.372) rotate(-45)" fill="#009dff"/>
      <g id="Group_26" data-name="Group 26" transform="translate(614 -165)" clip-path="url(#clip-path)">
        <g id="Group_25" data-name="Group 25">
          <path id="Path_3" data-name="Path 3" d="M164.269,416.389c.153,0,.3-.006.456-.008s.3.008.456.008a43.756,43.756,0,0,0,5.4-.366v16.7l-5.855,4.916-5.855-4.916v-16.7A43.756,43.756,0,0,0,164.269,416.389Z" fill="#ffc8af"/>
          <path id="Path_4" data-name="Path 4" d="M130.964,436.335c-5.951,4.6-12.529,24.172-14.878,33.255l16.4,4.541,5.481-15.973Z" fill="#fbd15b"/>
          <path id="Path_5" data-name="Path 5" d="M198.485,436.335c5.951,4.6,12.529,24.172,14.878,33.255l-16.4,4.541-5.481-15.973Z" fill="#fbd15b"/>
          <g id="Group_9" data-name="Group 9">
            <path id="Path_6" data-name="Path 6" d="M156.6,427.668c-17.54,2.092-25.641,8.667-25.641,8.667l7,21.823v60.605h26.755v-87.15c-5.4,0-5.854-3.945-5.854-3.945Z" fill="#fbd15b"/>
          </g>
          <g id="Group_10" data-name="Group 10">
            <path id="Path_7" data-name="Path 7" d="M172.844,427.668c17.539,2.092,25.641,8.667,25.641,8.667l-7.005,21.823v60.605H164.724v-87.15c5.4,0,5.855-3.945,5.855-3.945Z" fill="#fbd15b"/>
          </g>
          <g id="Group_24" data-name="Group 24">
            <ellipse id="Ellipse_4" data-name="Ellipse 4" cx="24.313" cy="27.234" rx="24.313" ry="27.234" transform="translate(140.412 367.977)" fill="#ffc8af"/>
            <g id="Group_18" data-name="Group 18">
              <g id="Group_17" data-name="Group 17">
                <g id="Group_11" data-name="Group 11">
                  <path id="Path_8" data-name="Path 8" d="M158.271,387.073c.579.09.018,1.727-1.063,1.608s-5.606-.834-8.523.3C148.685,388.978,149.807,385.763,158.271,387.073Z" fill="#11477c"/>
                  <path id="Path_9" data-name="Path 9" d="M171.179,387.073c-.579.09-.018,1.727,1.063,1.608s5.606-.834,8.523.3C180.765,388.978,179.643,385.763,171.179,387.073Z" fill="#11477c"/>
                </g>
                <path id="Path_10" data-name="Path 10" d="M168.013,413.689c-.308-.089-1.211.308-3.288.308s-2.98-.4-3.289-.308,1.38,1.519,3.289,1.519S168.322,413.777,168.013,413.689Z" fill="#f4b298"/>
                <g id="Group_12" data-name="Group 12">
                  <path id="Path_11" data-name="Path 11" d="M164.725,404.685c1.517,0,2.459.118,2.459.47,0,.147-.427.375-.924.591a3.847,3.847,0,0,1-3.07,0c-.5-.216-.924-.444-.924-.591C162.266,404.8,163.208,404.685,164.725,404.685Z" fill="#f4b298"/>
                  <path id="Path_12" data-name="Path 12" d="M162.824,403.481s.646-4.551.91-4.4S163.89,404.1,162.824,403.481Z" fill="#f7ecdf"/>
                </g>
                <g id="Group_14" data-name="Group 14">
                  <g id="Group_13" data-name="Group 13">
                    <ellipse id="Ellipse_5" data-name="Ellipse 5" cx="2.158" cy="3.816" rx="2.158" ry="3.816" transform="translate(153.361 392.767)" fill="#11477c"/>
                    <path id="Path_13" data-name="Path 13" d="M171.773,396.582c0,2.108.966,3.816,2.158,3.816s2.158-1.708,2.158-3.816-.966-3.815-2.158-3.815S171.773,394.475,171.773,396.582Z" fill="#11477c"/>
                  </g>
                  <ellipse id="Ellipse_6" data-name="Ellipse 6" cx="0.543" cy="0.837" rx="0.543" ry="0.837" transform="translate(155.758 394.143)" fill="#a3b8c1"/>
                  <ellipse id="Ellipse_7" data-name="Ellipse 7" cx="0.543" cy="0.837" rx="0.543" ry="0.837" transform="translate(174.116 394.143)" fill="#a3b8c1"/>
                </g>
                <g id="Group_15" data-name="Group 15">
                  <path id="Path_14" data-name="Path 14" d="M164.725,411.431a45.383,45.383,0,0,1-9.247-1.254.285.285,0,1,1,.137-.554,45.438,45.438,0,0,0,9.11,1.237,45.438,45.438,0,0,0,9.11-1.237.285.285,0,1,1,.137.554A45.383,45.383,0,0,1,164.725,411.431Z" fill="#f4b298"/>
                </g>
                <path id="Path_15" data-name="Path 15" d="M174.791,409.832a.61.61,0,1,1-.61-.61A.61.61,0,0,1,174.791,409.832Z" fill="#f4b298"/>
                <path id="Path_16" data-name="Path 16" d="M155.879,409.832a.61.61,0,1,1-.61-.61A.61.61,0,0,1,155.879,409.832Z" fill="#f4b298"/>
                <g id="Group_16" data-name="Group 16">
                  <path id="Path_17" data-name="Path 17" d="M169.684,389.463c-.751.563-2.362,5.931-2.1,6.666s.839-2.257,2.466-4.042S171.154,388.361,169.684,389.463Z" fill="#f4b298"/>
                  <path id="Path_18" data-name="Path 18" d="M159.766,389.463c.751.563,2.362,5.931,2.1,6.666s-.84-2.257-2.467-4.042S158.3,388.361,159.766,389.463Z" fill="#f4b298"/>
                </g>
              </g>
            </g>
            <g id="Group_21" data-name="Group 21">
              <g id="Group_19" data-name="Group 19">
                <path id="Path_19" data-name="Path 19" d="M140.845,391.8s-2.5-1.408-3.4.743.748,12.811,5.9,11.526Z" fill="#ffc8af"/>
                <path id="Path_20" data-name="Path 20" d="M140.83,401.691c.593.521,1.685-1.053,1.2-1.322s-1.638-.8-1.541-1.424a22.616,22.616,0,0,0,.529-2.263c.048-.771-.248-2.505-1.3-2.505S138.363,399.525,140.83,401.691Z" fill="#f4b298"/>
              </g>
              <g id="Group_20" data-name="Group 20">
                <path id="Path_21" data-name="Path 21" d="M188.6,391.8s2.5-1.408,3.4.743-.748,12.811-5.9,11.526Z" fill="#ffc8af"/>
                <path id="Path_22" data-name="Path 22" d="M188.62,401.691c-.593.521-1.685-1.053-1.2-1.322s1.638-.8,1.541-1.424a22.616,22.616,0,0,1-.529-2.263c-.048-.771.248-2.505,1.3-2.505S191.086,399.525,188.62,401.691Z" fill="#f4b298"/>
              </g>
            </g>
            <path id="Path_23" data-name="Path 23" d="M164.725,386.759c-4.31,0-7.955-.343-7.955-.343l-1.482-6.675-.745,6.64h-8.555v26.187c2.391,3.874,9.3,7.75,9.3,7.75-7.661,0-19.271-1.2-19.732-1.82s-3.689-17.267-.645-29.626,12.359-23.612,29.814-23.612,26.771,11.253,29.814,23.612-.184,29-.645,29.626-12.072,1.82-19.732,1.82c0,0,6.909-3.876,9.3-7.75V386.381h-8.555l-.745-6.64-1.482,6.675S169.035,386.759,164.725,386.759Z" fill="#11477c"/>
            <g id="Group_23" data-name="Group 23">
              <g id="Group_22" data-name="Group 22">
                <path id="Path_24" data-name="Path 24" d="M184.651,406.963,169.99,399.42a12,12,0,0,0-10.7.014l-14.532,7.528c0,8.736,8.932,15.818,19.948,15.818S184.651,415.7,184.651,406.963Z" fill="#fff"/>
              </g>
            </g>
          </g>
        </g>
      </g>
    </g>
    <g id="Group_123" data-name="Group 123" transform="translate(382 13)">
      <circle id="Ellipse_11" data-name="Ellipse 11" cx="63.145" cy="63.145" r="63.145" transform="translate(335.268 529.065)" fill="#009dff"/>
      <g id="Group_43" data-name="Group 43" transform="translate(50 388)">
        <g id="Group_42" data-name="Group 42" clip-path="url(#clip-path-2)">
          <g id="Group_41" data-name="Group 41">
            <g id="Group_37" data-name="Group 37">
              <path id="Path_31" data-name="Path 31" d="M323.823,208.615l20.949,7.5,17.451,7.912a2.622,2.622,0,0,0,3.6-1.643h0a2.623,2.623,0,0,0-1.19-3.009l-16.556-9.687a.761.761,0,0,1-.345-.874h0a.763.763,0,0,1,.986-.5l24.7,8.8a2.8,2.8,0,0,0,3.628-1.844h0a2.8,2.8,0,0,0-1.556-3.362l-22.775-10.052a.762.762,0,0,1-.423-.914h0a.763.763,0,0,1,.91-.525l26.419,6.375a3.219,3.219,0,0,0,3.842-2.214h0a3.22,3.22,0,0,0-2.223-4.018L353.3,192.773a.773.773,0,0,1-.533-.963h0a.773.773,0,0,1,.791-.551l24.325,1.6a3.178,3.178,0,0,0,3.255-2.267h0a3.178,3.178,0,0,0-2.616-4.052l-36.772-5.029a.45.45,0,0,1-.23-.791l8.1-6.822a4.008,4.008,0,0,0,.479-5.653h0a4.008,4.008,0,0,0-4.9-.975l-22.17,11.421a3.634,3.634,0,0,1-2.942.172l-62.654-23.484-8.66,29.2L311.246,200.9a14.668,14.668,0,0,1,6.462,3.621l.887.854A14.664,14.664,0,0,0,323.823,208.615Z" fill="#f4b298"/>
            </g>
            <g id="Group_38" data-name="Group 38">
              <path id="Path_32" data-name="Path 32" d="M328.862,205.318a8.567,8.567,0,0,1,1.418-14.192,11.479,11.479,0,0,1,19.009-12.666,11.959,11.959,0,0,1,18.7-2.38,3.286,3.286,0,0,1,2.178-2.039,3.349,3.349,0,1,1,1.781,6.456,3.274,3.274,0,0,1-1.021.072,11.991,11.991,0,0,1,.659,5.172,5.015,5.015,0,0,1,2.076,7.07,13.63,13.63,0,0,1,3.209,15.087,3.8,3.8,0,1,1-4.414,5.7,13.26,13.26,0,0,1-5.86,2.56,12.758,12.758,0,1,1-24.056,8.506,12.032,12.032,0,0,1-13.683-19.343Z" fill="#fff"/>
              <path id="Path_33" data-name="Path 33" d="M385.815,200.428a2.264,2.264,0,1,1-1.58,2.784A2.264,2.264,0,0,1,385.815,200.428Z" fill="#fff"/>
              <path id="Path_34" data-name="Path 34" d="M370.783,221.911a1.3,1.3,0,1,1-.906,1.6A1.3,1.3,0,0,1,370.783,221.911Z" fill="#fff"/>
            </g>
            <g id="Group_40" data-name="Group 40">
              <path id="Path_35" data-name="Path 35" d="M324.046,223.288l20.95,7.5,17.45,7.913a2.623,2.623,0,0,0,3.6-1.643h0a2.622,2.622,0,0,0-1.189-3.009L348.3,224.358a.761.761,0,0,1-.346-.874h0a.761.761,0,0,1,.986-.5l24.7,8.8a2.8,2.8,0,0,0,3.628-1.844h0a2.8,2.8,0,0,0-1.555-3.362L352.937,216.52a.762.762,0,0,1-.423-.914h0a.762.762,0,0,1,.909-.524l26.419,6.375a3.221,3.221,0,0,0,3.843-2.215h0a3.22,3.22,0,0,0-2.224-4.017l-27.934-7.78a.772.772,0,0,1-.533-.962h0a.772.772,0,0,1,.79-.551l24.326,1.6a3.176,3.176,0,0,0,3.254-2.267h0a3.177,3.177,0,0,0-2.615-4.051l-36.773-5.029a.451.451,0,0,1-.229-.792l8.1-6.822a4.007,4.007,0,0,0,.48-5.652h0a4.008,4.008,0,0,0-4.9-.976L323.26,193.363a3.638,3.638,0,0,1-2.942.173l-62.653-23.484-8.66,29.2,62.465,16.318a14.669,14.669,0,0,1,6.461,3.621l.888.854A14.663,14.663,0,0,0,324.046,223.288Z" fill="#ffc8af"/>
              <g id="Group_39" data-name="Group 39">
                <path id="Path_36" data-name="Path 36" d="M376.956,206.179l1.238.081a1.9,1.9,0,0,0,.383-3.785l-1.36-.186A8.615,8.615,0,0,0,376.956,206.179Z" fill="#ffc8af"/>
                <path id="Path_37" data-name="Path 37" d="M378.861,219.91l1.28.308a1.946,1.946,0,0,0,.979-3.766l-1.278-.356A8.686,8.686,0,0,0,378.861,219.91Z" fill="#ffc8af"/>
                <path id="Path_38" data-name="Path 38" d="M372.988,230.2l1.078.384a1.531,1.531,0,0,0,1.98-1.006,1.532,1.532,0,0,0-.849-1.834l-1.082-.478A8.6,8.6,0,0,0,372.988,230.2Z" fill="#ffc8af"/>
                <path id="Path_39" data-name="Path 39" d="M364.089,237.535a1.329,1.329,0,0,0,.733-.843,1.347,1.347,0,0,0-.612-1.548l-1.092-.639a8.559,8.559,0,0,0-1.375,2.474l1.229.558A1.33,1.33,0,0,0,364.089,237.535Z" fill="#ffc8af"/>
                <path id="Path_40" data-name="Path 40" d="M347.655,188.752l1.372-1.156a2.734,2.734,0,0,0-3.013-4.521l-1.512.779A8.9,8.9,0,0,0,347.655,188.752Z" fill="#ffc8af"/>
              </g>
            </g>
          </g>
        </g>
      </g>
    </g>
    <g id="Group_124" data-name="Group 124" transform="translate(-395 22)">
      <circle id="Ellipse_14" data-name="Ellipse 14" cx="63.145" cy="63.145" r="63.145" transform="translate(704.113 583.372) rotate(-45)" fill="#009dff"/>
      <g id="Group_80" data-name="Group 80" transform="translate(445 168)">
        <g id="Group_79" data-name="Group 79" clip-path="url(#clip-path-3)">
          <g id="Group_62" data-name="Group 62">
            <g id="Group_61" data-name="Group 61">
              <path id="Path_45" data-name="Path 45" d="M381.132,429.982c.105,0,.209,0,.313-.005s.208.005.313.005a29.935,29.935,0,0,0,3.711-.252v11.48l-4.024,3.378-4.024-3.378V429.73A29.922,29.922,0,0,0,381.132,429.982Z" fill="#ffc8af"/>
              <path id="Path_46" data-name="Path 46" d="M358.244,443.689c-4.09,3.159-10.224,17.24-10.224,42.565h15.038V458.686Z" fill="#d47570"/>
              <path id="Path_47" data-name="Path 47" d="M404.645,443.689c4.09,3.159,10.224,17.555,10.224,42.565H399.831V458.686Z" fill="#d47570"/>
              <g id="Group_47" data-name="Group 47">
                <path id="Path_48" data-name="Path 48" d="M375.865,437.733c-12.054,1.438-17.621,5.956-17.621,5.956l4.814,15v41.649h18.387V440.444c-3.715,0-4.024-2.711-4.024-2.711Z" fill="#ec827d"/>
              </g>
              <g id="Group_48" data-name="Group 48">
                <path id="Path_49" data-name="Path 49" d="M387.024,437.733c12.054,1.438,17.621,5.956,17.621,5.956l-4.814,15v41.649H381.445V440.444c3.714,0,4.023-2.711,4.023-2.711Z" fill="#ec827d"/>
              </g>
              <g id="Group_60" data-name="Group 60">
                <ellipse id="Ellipse_15" data-name="Ellipse 15" cx="16.708" cy="18.716" rx="16.708" ry="18.716" transform="translate(364.737 399.388)" fill="#ffc8af"/>
                <g id="Group_51" data-name="Group 51">
                  <g id="Group_49" data-name="Group 49">
                    <path id="Path_50" data-name="Path 50" d="M365.035,415.757s-1.721-.968-2.339.511.514,8.8,4.052,7.921Z" fill="#ffc8af"/>
                    <path id="Path_51" data-name="Path 51" d="M365.024,422.556c.408.358,1.158-.724.827-.908s-1.125-.548-1.059-.979a15.53,15.53,0,0,0,.364-1.555c.033-.53-.171-1.721-.9-1.721S363.329,421.068,365.024,422.556Z" fill="#f4b298"/>
                    <path id="Path_52" data-name="Path 52" d="M365.035,415.757l.927,4.561.786-9.015-2.488.794Z" fill="#11477c"/>
                  </g>
                  <g id="Group_50" data-name="Group 50">
                    <path id="Path_53" data-name="Path 53" d="M397.855,415.757s1.721-.968,2.339.511-.514,8.8-4.052,7.921Z" fill="#ffc8af"/>
                    <path id="Path_54" data-name="Path 54" d="M397.866,422.556c-.408.358-1.158-.724-.827-.908s1.125-.548,1.059-.979a15.53,15.53,0,0,1-.364-1.555c-.033-.53.171-1.721.9-1.721S399.561,421.068,397.866,422.556Z" fill="#f4b298"/>
                    <path id="Path_55" data-name="Path 55" d="M397.855,415.757l-.927,4.561-.786-9.015,2.488.794Z" fill="#11477c"/>
                  </g>
                </g>
                <path id="Path_56" data-name="Path 56" d="M363.212,413.32a4.475,4.475,0,0,1-.975-3.042,4.621,4.621,0,0,1,2.009-3.387,2.182,2.182,0,0,1,1.549-3.214,4.1,4.1,0,0,1,.459-3.5,4.022,4.022,0,0,1,4.477-1.378,4.8,4.8,0,0,1,2.813-4.075,5.029,5.029,0,0,1,4.477.344,2.126,2.126,0,0,1,1.55-1.2,2.673,2.673,0,0,0,3.748,0,2.126,2.126,0,0,1,1.55,1.2,5.028,5.028,0,0,1,4.477-.344,4.8,4.8,0,0,1,2.813,4.075,4.022,4.022,0,0,1,4.477,1.378,4.1,4.1,0,0,1,.459,3.5,2.183,2.183,0,0,1,1.55,3.214,4.627,4.627,0,0,1,2.008,3.387,4.475,4.475,0,0,1-.975,3.042,1.718,1.718,0,0,1-1.033,3.157,2.9,2.9,0,0,1-.775.516,2.84,2.84,0,0,1-.632.2,2.323,2.323,0,0,1-1.176-.861,2.674,2.674,0,0,1-.115-2.5,4.665,4.665,0,0,1-1.435-3.759,3.512,3.512,0,0,1,.4-1.148,4.473,4.473,0,0,1-2.727-2.583,3.7,3.7,0,0,1-.172-1.435,1.646,1.646,0,0,1-1.722,0,1.556,1.556,0,0,1-.6-.832,5.142,5.142,0,0,1-5.625-.546s-.4,1.258-2.585,1.287v.005c-.013,0-.022,0-.035,0s-.022,0-.035,0v-.005c-2.184-.029-2.586-1.287-2.586-1.287a5.141,5.141,0,0,1-5.625.546,1.541,1.541,0,0,1-.6.832,1.645,1.645,0,0,1-1.722,0,3.7,3.7,0,0,1-.172,1.435,4.475,4.475,0,0,1-2.727,2.583,3.511,3.511,0,0,1,.4,1.148,4.665,4.665,0,0,1-1.435,3.759,2.674,2.674,0,0,1-.115,2.5,2.323,2.323,0,0,1-1.176.861,2.84,2.84,0,0,1-.632-.2,2.871,2.871,0,0,1-.774-.516,1.718,1.718,0,0,1-1.034-3.157Z" fill="#11477c"/>
                <g id="Group_59" data-name="Group 59">
                  <g id="Group_58" data-name="Group 58">
                    <g id="Group_52" data-name="Group 52">
                      <path id="Path_57" data-name="Path 57" d="M376.88,412.462c.41.063.013,1.221-.752,1.137s-3.965-.59-6.029.21C370.1,413.809,370.893,411.535,376.88,412.462Z" fill="#11477c"/>
                      <path id="Path_58" data-name="Path 58" d="M386.01,412.462c-.41.063-.013,1.221.752,1.137s3.965-.59,6.029.21C392.791,413.809,392,411.535,386.01,412.462Z" fill="#11477c"/>
                    </g>
                    <path id="Path_59" data-name="Path 59" d="M383.771,431.287c-.218-.062-.857.218-2.326.218s-2.108-.28-2.326-.218.976,1.075,2.326,1.075S383.989,431.35,383.771,431.287Z" fill="#f4b298"/>
                    <g id="Group_53" data-name="Group 53">
                      <path id="Path_60" data-name="Path 60" d="M381.445,424.919c1.073,0,1.739.083,1.739.332,0,.1-.3.266-.653.419a2.733,2.733,0,0,1-2.172,0c-.352-.153-.653-.315-.653-.419C379.706,425,380.372,424.919,381.445,424.919Z" fill="#f4b298"/>
                      <path id="Path_61" data-name="Path 61" d="M380.1,424.068s.457-3.22.644-3.116S380.854,424.5,380.1,424.068Z" fill="#f7ecdf"/>
                    </g>
                    <g id="Group_55" data-name="Group 55">
                      <g id="Group_54" data-name="Group 54">
                        <path id="Path_62" data-name="Path 62" d="M373.407,419.188c0,1.49.683,2.7,1.526,2.7s1.527-1.209,1.527-2.7-.683-2.7-1.527-2.7S373.407,417.7,373.407,419.188Z" fill="#11477c"/>
                        <path id="Path_63" data-name="Path 63" d="M386.43,419.188c0,1.49.683,2.7,1.527,2.7s1.526-1.209,1.526-2.7-.683-2.7-1.526-2.7S386.43,417.7,386.43,419.188Z" fill="#11477c"/>
                      </g>
                      <path id="Path_64" data-name="Path 64" d="M375.1,418.054c0,.327.171.592.384.592s.383-.265.383-.592-.172-.591-.383-.591S375.1,417.728,375.1,418.054Z" fill="#a3b8c1"/>
                      <path id="Path_65" data-name="Path 65" d="M388.087,418.054c0,.327.172.592.384.592s.384-.265.384-.592-.172-.591-.384-.591S388.087,417.728,388.087,418.054Z" fill="#a3b8c1"/>
                    </g>
                    <g id="Group_56" data-name="Group 56">
                      <path id="Path_66" data-name="Path 66" d="M381.445,429.691a32.149,32.149,0,0,1-6.541-.887.2.2,0,0,1,.1-.392,24.166,24.166,0,0,0,12.888,0,.2.2,0,0,1,.1.392A32.148,32.148,0,0,1,381.445,429.691Z" fill="#f4b298"/>
                    </g>
                    <path id="Path_67" data-name="Path 67" d="M388.565,428.559a.432.432,0,1,1-.432-.431A.431.431,0,0,1,388.565,428.559Z" fill="#f4b298"/>
                    <path id="Path_68" data-name="Path 68" d="M375.188,428.559a.431.431,0,1,1-.431-.431A.431.431,0,0,1,375.188,428.559Z" fill="#f4b298"/>
                    <g id="Group_57" data-name="Group 57">
                      <path id="Path_69" data-name="Path 69" d="M384.953,414.152c-.532.4-1.671,4.195-1.485,4.715s.594-1.6,1.745-2.859S385.992,413.372,384.953,414.152Z" fill="#f4b298"/>
                      <path id="Path_70" data-name="Path 70" d="M377.937,414.152c.532.4,1.671,4.195,1.485,4.715s-.594-1.6-1.745-2.859S376.9,413.372,377.937,414.152Z" fill="#f4b298"/>
                    </g>
                  </g>
                </g>
              </g>
            </g>
          </g>
          <g id="Group_78" data-name="Group 78">
            <g id="Group_77" data-name="Group 77">
              <path id="Path_71" data-name="Path 71" d="M315.694,429.982c-.105,0-.209,0-.313-.005s-.209.005-.314.005a29.918,29.918,0,0,1-3.71-.252v11.48l4.024,3.378,4.023-3.378V429.73A29.918,29.918,0,0,1,315.694,429.982Z" fill="#ffc8af"/>
              <path id="Path_72" data-name="Path 72" d="M338.582,443.689c4.089,3.159,10.223,17.24,10.223,42.565H333.767V458.686Z" fill="#5a65e3"/>
              <path id="Path_73" data-name="Path 73" d="M292.18,443.689c-4.09,3.159-10.224,17.555-10.224,42.565h15.038V458.686Z" fill="#5a65e3"/>
              <g id="Group_63" data-name="Group 63">
                <path id="Path_74" data-name="Path 74" d="M320.961,437.733c12.053,1.438,17.621,5.956,17.621,5.956l-4.815,15v41.649H315.381V440.444c3.714,0,4.023-2.711,4.023-2.711Z" fill="#606bf1"/>
              </g>
              <g id="Group_64" data-name="Group 64">
                <path id="Path_75" data-name="Path 75" d="M309.8,437.733c-12.054,1.438-17.621,5.956-17.621,5.956l4.814,15v41.649h18.387V440.444c-3.715,0-4.023-2.711-4.023-2.711Z" fill="#606bf1"/>
              </g>
              <g id="Group_76" data-name="Group 76">
                <ellipse id="Ellipse_16" data-name="Ellipse 16" cx="16.708" cy="18.716" rx="16.708" ry="18.716" transform="translate(298.672 399.388)" fill="#ffc8af"/>
                <g id="Group_67" data-name="Group 67">
                  <g id="Group_65" data-name="Group 65">
                    <path id="Path_76" data-name="Path 76" d="M331.791,415.757s1.721-.968,2.338.511-.514,8.8-4.052,7.921Z" fill="#ffc8af"/>
                    <path id="Path_77" data-name="Path 77" d="M331.8,422.556c-.408.358-1.159-.724-.828-.908s1.126-.548,1.059-.979a15.53,15.53,0,0,1-.364-1.555c-.033-.53.171-1.721.9-1.721S333.5,421.068,331.8,422.556Z" fill="#f4b298"/>
                    <path id="Path_78" data-name="Path 78" d="M331.791,415.757l-.927,4.561-.786-9.015,2.488.794Z" fill="#775300"/>
                  </g>
                  <g id="Group_66" data-name="Group 66">
                    <path id="Path_79" data-name="Path 79" d="M298.97,415.757s-1.721-.968-2.339.511.514,8.8,4.052,7.921Z" fill="#ffc8af"/>
                    <path id="Path_80" data-name="Path 80" d="M298.959,422.556c.408.358,1.159-.724.828-.908s-1.126-.548-1.06-.979a15.51,15.51,0,0,0,.365-1.555c.033-.53-.171-1.721-.9-1.721S297.264,421.068,298.959,422.556Z" fill="#f4b298"/>
                    <path id="Path_81" data-name="Path 81" d="M298.97,415.757l.927,4.561.786-9.015-2.488.794Z" fill="#775300"/>
                  </g>
                </g>
                <g id="Group_75" data-name="Group 75">
                  <g id="Group_74" data-name="Group 74">
                    <g id="Group_68" data-name="Group 68">
                      <path id="Path_82" data-name="Path 82" d="M310.815,412.742c.41.064.013,1.222-.751,1.138s-3.966-.59-6.029.21C304.035,414.09,304.828,411.816,310.815,412.742Z" fill="#11477c"/>
                      <path id="Path_83" data-name="Path 83" d="M319.946,412.742c-.41.064-.014,1.222.751,1.138s3.965-.59,6.029.21C326.726,414.09,325.932,411.816,319.946,412.742Z" fill="#11477c"/>
                    </g>
                    <path id="Path_84" data-name="Path 84" d="M317.706,431.568c-.218-.062-.856.218-2.326.218s-2.107-.28-2.326-.218.976,1.075,2.326,1.075S317.924,431.63,317.706,431.568Z" fill="#f4b298"/>
                    <g id="Group_69" data-name="Group 69">
                      <path id="Path_85" data-name="Path 85" d="M315.38,425.2c1.073,0,1.74.083,1.74.332,0,.1-.3.265-.654.418a2.723,2.723,0,0,1-2.171,0c-.352-.153-.654-.314-.654-.418C313.641,425.283,314.307,425.2,315.38,425.2Z" fill="#f4b298"/>
                      <path id="Path_86" data-name="Path 86" d="M314.036,424.348s.457-3.219.644-3.115S314.79,424.784,314.036,424.348Z" fill="#f7ecdf"/>
                    </g>
                    <g id="Group_71" data-name="Group 71">
                      <g id="Group_70" data-name="Group 70">
                        <path id="Path_87" data-name="Path 87" d="M307.342,419.469c0,1.49.684,2.7,1.527,2.7s1.526-1.208,1.526-2.7-.683-2.7-1.526-2.7S307.342,417.978,307.342,419.469Z" fill="#11477c"/>
                        <path id="Path_88" data-name="Path 88" d="M320.365,419.469c0,1.49.684,2.7,1.527,2.7s1.527-1.208,1.527-2.7-.684-2.7-1.527-2.7S320.365,417.978,320.365,419.469Z" fill="#11477c"/>
                      </g>
                      <path id="Path_89" data-name="Path 89" d="M309.038,418.335c0,.327.172.592.384.592s.384-.265.384-.592-.172-.592-.384-.592S309.038,418.008,309.038,418.335Z" fill="#a3b8c1"/>
                      <path id="Path_90" data-name="Path 90" d="M322.023,418.335c0,.327.171.592.383.592s.384-.265.384-.592-.172-.592-.384-.592S322.023,418.008,322.023,418.335Z" fill="#a3b8c1"/>
                    </g>
                    <g id="Group_72" data-name="Group 72">
                      <path id="Path_91" data-name="Path 91" d="M315.38,429.971a32.138,32.138,0,0,1-6.54-.886.2.2,0,1,1,.1-.392,24.166,24.166,0,0,0,12.888,0,.2.2,0,0,1,.245.147.2.2,0,0,1-.148.245A32.148,32.148,0,0,1,315.38,429.971Z" fill="#f4b298"/>
                    </g>
                    <path id="Path_92" data-name="Path 92" d="M322.5,428.84a.432.432,0,1,1-.431-.431A.432.432,0,0,1,322.5,428.84Z" fill="#f4b298"/>
                    <path id="Path_93" data-name="Path 93" d="M309.124,428.84a.432.432,0,1,1-.432-.431A.433.433,0,0,1,309.124,428.84Z" fill="#f4b298"/>
                    <g id="Group_73" data-name="Group 73">
                      <path id="Path_94" data-name="Path 94" d="M318.888,414.433c-.531.4-1.671,4.195-1.485,4.715s.594-1.6,1.745-2.859S319.928,413.653,318.888,414.433Z" fill="#f4b298"/>
                      <path id="Path_95" data-name="Path 95" d="M311.873,414.433c.531.4,1.67,4.195,1.485,4.715s-.594-1.6-1.745-2.859S310.833,413.653,311.873,414.433Z" fill="#f4b298"/>
                    </g>
                  </g>
                </g>
                <path id="Path_96" data-name="Path 96" d="M315.38,402.96a31.245,31.245,0,0,0-8.707,1.453c-2.408.691-2.3,3.735-2.638,4.7s-4.6,4.189-4.6,4.189-.637,1.656-1.244-1.208a9.08,9.08,0,0,1,2.031-8.169,25.213,25.213,0,0,1,8.425-5.841c4.622-1.961,9.57-1.643,14.344-.345q1.107.3,2.189.686a4.74,4.74,0,0,1,1.62.848,1.787,1.787,0,0,1,.634,1.639,2.655,2.655,0,0,1,2.854.794,6.179,6.179,0,0,1,1.309,2.832c.625,2.6,1.543,4.824.964,7.556-.606,2.864-1.244,1.208-1.244,1.208s-4.253-3.22-4.6-4.189-.23-4.012-2.638-4.7A31.246,31.246,0,0,0,315.38,402.96Z" fill="#775300"/>
                <path id="Path_97" data-name="Path 97" d="M323.254,403.444c-4.018.277-13.556,4.77-17.945,6.733a40.212,40.212,0,0,1-5.87,2.306l.8-7.283s2.579-3.693,10.743-4.431S323.254,403.444,323.254,403.444Z" fill="#775300"/>
              </g>
            </g>
          </g>
        </g>
      </g>
      <g id="Group_84" data-name="Group 84" transform="translate(445 168)">
        <g id="Group_81" data-name="Group 81">
          <rect id="Rectangle_9" data-name="Rectangle 9" width="61.31" height="2.381" transform="translate(317.758 384.499)" fill="#11477c"/>
        </g>
        <g id="Group_82" data-name="Group 82">
          <path id="Path_98" data-name="Path 98" d="M320.914,389.585l.65-.7-3.44-3.2,3.44-3.2-.65-.7-4.189,3.9Z" fill="#11477c"/>
        </g>
        <g id="Group_83" data-name="Group 83">
          <path id="Path_99" data-name="Path 99" d="M375.912,389.585l-.65-.7,3.44-3.2-3.44-3.2.65-.7,4.189,3.9Z" fill="#11477c"/>
        </g>
      </g>
      <path id="Path_100" data-name="Path 100" d="M344.641,370.248c0-2.6-1.71-4.158-4.352-4.158-2.527,0-4.412,1.554-4.528,4.547h1.709c.078-1.768,1.011-3.031,2.839-3.031,1.9,0,2.583,1.165,2.583,2.72,0,2.875-3.5,5.674-7.19,8.647v1.264h9.347V378.76h-6.685C340.872,376.719,344.641,373.746,344.641,370.248Zm14.6-3.3-4.974,11.114-4.975-11.114h-1.9v13.447h1.768V370.346l4.488,10.046h1.244l4.47-10.028v10.028h1.768V366.945Z" transform="translate(445 168)" fill="#11477c"/>
    </g>
  </g>
</svg>
