<svg xmlns="http://www.w3.org/2000/svg" width="512" height="455.377" viewBox="0 0 512 455.377">
  <g id="Active_Cases" data-name="Active Cases" transform="translate(0 -28.312)">
    <path id="Path_3" data-name="Path 3" d="M361.448,289.638l-8.108-32.431L330.1,321.126a15,15,0,0,1-28.434-.715l-27.51-89.406L229.926,341.571A15,15,0,0,1,216,351c-.373,0-.749-.014-1.125-.042A15,15,0,0,1,201.4,339.437l-27.889-118.53L150.23,290.744A15,15,0,0,1,136,301H67.1L245.394,479.3a15,15,0,0,0,21.212,0L444.9,301H376a15,15,0,0,1-14.552-11.362Z"/>
    <path id="Path_4" data-name="Path 4" d="M161.77,161.257a15,15,0,0,1,28.832,1.308l29.117,123.75L262.073,180.43a15,15,0,0,1,28.264,1.159l26.849,87.258L341.9,200.874a15,15,0,0,1,28.648,1.488L387.712,271h86.914c51.419-57,49.685-145.22-5.2-200.109-56.682-56.682-148.908-56.682-205.59,0L256,78.722l-7.831-7.831a145.374,145.374,0,0,0-205.59,0C-12.311,125.78-14.045,214,37.374,271h87.814Z"/>
    <path id="Path_5" data-name="Path 5" d="M37.374,271H15a15,15,0,0,0,0,30H67.1l-24.52-24.52Q39.891,273.794,37.374,271Z"/>
    <path id="Path_6" data-name="Path 6" d="M497,271H474.626q-2.518,2.791-5.2,5.48L444.9,301H497a15,15,0,0,0,0-30Z"/>
  </g>
</svg>
