<svg xmlns="http://www.w3.org/2000/svg" width="379" height="379" viewBox="0 0 379 379">
  <path id="covid-19" d="M367.156,150.021a11.842,11.842,0,0,0-11.844,11.846v11.842H322.72a133.439,133.439,0,0,0-27.872-67.223l23.065-23.067L327.2,91.28a11.843,11.843,0,1,0,16.75-16.748L304.469,35.053A11.843,11.843,0,0,0,287.719,51.8l7.862,9.284L272.514,84.151a133.456,133.456,0,0,0-67.222-27.871V23.688h11.844a11.844,11.844,0,1,0,0-23.687H161.865a11.844,11.844,0,0,0,0,23.688h11.844V56.281a133.456,133.456,0,0,0-67.223,27.871L83.419,61.085,91.28,51.8A11.843,11.843,0,0,0,74.531,35.053L35.962,74.532A11.843,11.843,0,1,0,52.712,91.28l8.375-7.861,23.065,23.067A133.44,133.44,0,0,0,56.28,173.708H23.688V161.865a11.844,11.844,0,1,0-23.687,0v55.271a11.844,11.844,0,0,0,23.688,0V205.292H56.28a133.44,133.44,0,0,0,27.872,67.223L61.087,295.581,51.8,287.72a11.843,11.843,0,0,0-16.75,16.748l39.478,39.479A11.843,11.843,0,1,0,91.28,327.2l-7.861-9.284,23.066-23.067a133.455,133.455,0,0,0,67.224,27.87v32.593H161.865a11.844,11.844,0,1,0,0,23.688h55.271a11.844,11.844,0,0,0,0-23.687H205.292V322.719a133.455,133.455,0,0,0,67.223-27.871l23.066,23.067-7.862,9.284a11.843,11.843,0,1,0,16.749,16.748l39.478-39.479A11.843,11.843,0,0,0,327.2,287.72l-9.284,7.861-23.065-23.067a133.439,133.439,0,0,0,27.872-67.223h32.592v11.844a11.844,11.844,0,0,0,23.688,0V161.865a11.842,11.842,0,0,0-11.846-11.844Zm-221.083,7.9a27.635,27.635,0,1,1,27.635-27.635,27.635,27.635,0,0,1-27.635,27.635Zm90.8,102.646a15.792,15.792,0,1,1,15.792-15.792,15.792,15.792,0,0,1-15.792,15.792Z" fill="#de4141"/>
</svg>
