<?xml version="1.0" encoding="utf-8"?>
<!-- Generator: Adobe Illustrator 24.1.0, SVG Export Plug-In . SVG Version: 6.00 Build 0)  -->
<svg version="1.1" id="Layer_1" xmlns="http://www.w3.org/2000/svg" xmlns:xlink="http://www.w3.org/1999/xlink" x="0px" y="0px"
	 viewBox="0 0 379 379" style="enable-background:new 0 0 379 379;" xml:space="preserve">
<style type="text/css">
	.st0{fill:#FECB8A;}
	.st1{fill:none;}
	.st2{fill:#DAA5CB;}
	.st3{fill:#FFFFFF;}
	.st4{fill:#00A1BF;}
	.st5{fill:#FDB51E;}
</style>
<image style="display:none;overflow:visible;" width="236" height="354" xlink:href="../../../../../../Downloads/e37e0e25686c2139b281a57a5b4906f2--headshot-photography-men-photography.jpg"  transform="matrix(1 0 0 1 74.3529 25)">
</image>
<polygon points="140.4,139.4 136.4,133.3 134.7,125.8 132.4,118.7 132.4,105.8 132.4,97.5 134.9,82.5 140.4,71.9 146.5,63.4 
	157.5,55.2 165.8,48.8 174.5,45.8 185.3,44.8 201.8,46 215.6,51.6 216.8,54.7 222,55.6 226.9,60.8 228.4,65.3 234.5,69.8 
	237.5,76.8 242.5,85.8 243.9,92.1 245.3,98.9 247.4,110.7 247.4,119.2 243.9,129.3 242,142.7 240.4,131.6 238,119.2 237.5,115.6 
	234.2,114.5 233.5,106.9 235.4,98.5 232.4,92.8 228.4,87.4 220.1,82.9 217.5,75.2 212.6,78.7 205.5,82.7 204.4,83.2 199.2,84.1 
	194,86.9 183.4,87.6 175.9,89.5 165.3,89.8 155.4,89.1 153.1,86.5 146.5,87.9 142.2,92.6 139.9,102.2 138.9,109.8 142.2,113.1 
	146.7,116.6 146,120.8 143.4,124.1 142.5,139.4 142,150.7 "/>
<polygon class="st0" points="143.4,157.8 143.4,147.2 143.4,136.4 143.4,129.8 146.5,122.9 146.5,119.4 141.5,112.1 139.2,108.1 
	139.2,99.9 142.8,92.6 149.5,87.4 156.4,87.4 165.3,90.5 174.5,90 187.6,89.8 200.4,88.4 206,84.4 214.5,79.2 216.4,77.5 
	218.9,84.1 226.9,86.5 234.5,92.1 234.5,101.5 233.3,108.6 234.5,114.7 238.5,117.6 239.4,125.5 241.8,143.4 241.8,148.1 
	242.9,127.9 246.9,123.9 250,123.2 250.9,127.9 250.9,134 249.8,143.2 247.6,152.4 242.9,161.3 239.6,162.5 240.6,178.7 
	241.5,182.9 244.1,192.1 245.5,203.9 247.4,210.9 249.1,221.3 249.8,237.1 249.8,248.1 242,260.4 237.1,268.8 237.1,285.3 
	233.5,292.8 235.9,320.6 231.2,316.4 216.1,305.1 208.1,297.3 202.7,292.6 201.1,281.5 190.5,274 185.5,264.8 176.4,252.4 
	171.2,242.9 164.8,232.1 160.8,222.7 157.5,205.5 156.6,201.1 151.2,196.1 147.6,180.6 145.1,171.6 141.1,169.1 134.5,158.7 
	133.3,152.4 131.6,146 131.6,137.8 134.2,135.2 137.5,135.2 139.9,140.8 "/>
<polygon points="150.7,139.6 155.4,136.4 162.9,134.5 170.5,134.5 177.3,137.1 177.3,134.5 169.1,130 161.3,130 154,132.8 
	149.1,139.6 149.1,141.1 "/>
<polygon points="202.7,130.5 209.5,127.4 216.8,125.5 222.2,125.5 228.4,128 233.1,131.9 230.7,132.8 222.5,130.7 213.1,131.2 
	203.6,134.5 "/>
<polygon class="st1" points="183.1,172.1 186.4,170.4 189.5,172.1 192.4,173.9 187.7,173.9 "/>
<polygon class="st1" points="198.1,171.6 199.5,169.5 202.6,169.5 204.6,170.5 201.3,171.6 198.1,173 "/>
<polygon class="st2" points="167.5,186.2 176,186.9 183.1,186.2 190.5,186.2 199.1,185.4 206.5,183.6 213.4,181.3 218.7,179.7 
	219.8,181.5 213.8,186.9 211.3,192.6 208.6,196.6 202.6,198.9 197.5,200.4 189.5,201.1 183.9,201.1 178.1,198.6 174.9,194 
	169.6,189.5 "/>
<polygon class="st3" points="174.4,187.5 180.1,187.5 191.5,188.2 200.2,187.5 207.2,184.3 214.8,182 210.4,187.3 202.1,192.2 
	194.6,194 186.8,194 179.4,191.5 172.8,188 "/>
<polygon class="st4" points="245.5,194 252.9,209.9 255.8,227.2 262.5,248.4 262.5,259.6 264.9,274.5 274.8,342.2 283.3,379 
	221.9,379 213.1,358.1 194,306.2 185.9,289.6 178.8,282.2 178.8,273.1 163.3,239.2 163.3,228.9 169.3,239.5 180.6,261.1 
	192.4,276.2 200.7,281.5 202.1,296 207.1,296 223.3,312.9 234.9,321.8 234.9,298.5 237.4,286.5 239.5,276.6 237.8,270.2 
	249.1,251.9 249.4,236.4 "/>
<polygon points="240.2,181.6 251.9,186.9 299.5,184.3 310.4,184.3 310.4,381.1 283.3,379 263.2,264.9 261.8,258.6 262.1,254.7 
	260.7,246.9 252.6,212.4 246.6,196.8 "/>
<polygon points="74.4,274.5 109.6,248.7 125.9,239.2 143.9,225.4 152,215.9 157.3,209.2 162.9,233.5 170.4,255.4 178.5,274.5 
	182,283.6 187.3,289.6 222.2,379 75.8,379 "/>
<polygon class="st3" points="159.6,143.6 164.6,140.8 171.6,139.6 175.9,141.6 179.4,145.3 172.8,145.3 163.9,145.3 159.6,145.3 "/>
<polygon class="st3" points="205.3,141.1 208.6,136.6 211.9,134.9 217.3,134.9 221.1,138 224.1,139.6 216.1,141.1 "/>
<polygon points="164.1,141.8 165.8,144.1 170.7,145.1 172.4,143.4 172.4,141.8 171.2,140.6 168.2,139.4 "/>
<polygon points="207.6,137.5 209.5,139.9 213.3,139.9 216.4,139.9 218.9,138.7 218.9,135.9 216.4,134.5 213.3,134.5 209.8,134.5 "/>
<polygon class="st5" points="183.6,171.9 187.6,170.5 189.5,171.9 "/>
<polygon class="st5" points="198.5,171.6 202.2,169.5 204.4,169.5 202.9,171.6 "/>
</svg>
